# xmcd CD database file
#
# Track frame offsets:
#	183
#	13163
#	25860
#	37758
#	50673
#	66150
#	82765
#	99600
#	115378
#	128175
#	144113
#	157213
#	170278
#	189310
#	199218
#
# Disc length: 2897 seconds
#
# Revision: 0
# Processed by: cddbd v1.5.2PL0 Copyright (c) Steve Scherf et al.
# Submitted via: CDex 1.51
#
DISCID=c40b4f0f
DTITLE=Chuck Barlinger and Friends - Live -  from the Nasville Country Club Holland
DYEAR=1900
DGENRE=Country
TTITLE0=Soundcheck
TTITLE1=Heroes and Friends
TTITLE2=You And Me
TTITLE3=Lord Have Mercy On A Countryboy
TTITLE4=If I Need You
TTITLE5=Never Drive Alone
TTITLE6=Mama´s Dont Let Your Baby´s Grow Up To Be Cowboys
TTITLE7=When My Blue Moon Turns To Gold Again
TTITLE8=Just To Satisfy You
TTITLE9=The Wayward Wind
TTITLE10=Tennessee Farewell
TTITLE11=I Love You Because
TTITLE12=Your´re My Best Friend
TTITLE13=Happy Trails
TTITLE14=Will The Circle Be Unbroken
EXTD=
EXTT0=
EXTT1=
EXTT2=
EXTT3=
EXTT4=
EXTT5=
EXTT6=
EXTT7=
EXTT8=
EXTT9=
EXTT10=
EXTT11=
EXTT12=
EXTT13=
EXTT14=
PLAYORDER=
